<?xml version="1.0" encoding="UTF-8" standalone="no"?>
<!-- Created with Inkscape (http://www.inkscape.org/) -->
<svg
   xmlns:svg="http://www.w3.org/2000/svg"
   xmlns="http://www.w3.org/2000/svg"
   version="1.0"
   width="460"
   height="211.42857"
   id="svg2595">
  <defs
     id="defs2597" />
  <g
     transform="translate(34.285713,-360.93362)"
     id="layer1">
    <path
       d="M -22.49187,509.41354 L 414.49188,509.41354 L 414.49188,497.53445 L -22.49187,497.53445 L -22.49187,509.41354 z"
       id="path33"
       style="fill:#a32240;fill-opacity:1;fill-rule:nonzero;stroke:none" />
    <path
       d="M 6.7518201,522.17468 C 3.1937927,520.96534 -0.5415926,520.30697 -4.706589,520.30697 C -15.819471,520.30697 -21.805486,525.50388 -21.805486,531.51324 C -21.805486,537.06501 -17.206247,539.88992 -9.740071,542.81756 C -6.093365,544.33041 -2.1011316,545.44169 -2.1011316,548.36933 C -2.1011316,550.89074 -5.402311,552.50631 -9.567308,552.50631 C -13.386777,552.50631 -16.337799,551.69853 -19.377461,550.48451 L -19.377461,557.65186 C -16.426477,558.91256 -11.911285,559.57093 -8.264579,559.57093 C 3.8848832,559.57093 10.57129,554.47208 10.57129,547.71096 C 10.57129,537.4152 -9.133065,537.06501 -9.133065,530.80351 C -9.133065,528.48287 -6.616324,527.06808 -2.6240908,527.06808 C 0.9338993,527.06808 4.1463628,528.17937 6.7518201,529.49144 L 6.7518201,522.17468"
       id="path35"
       style="fill:#231f20;fill-opacity:1;fill-rule:nonzero;stroke:none" />
    <path
       d="M 50.278795,532.97472 C 37.172168,532.97472 33.614178,539.73584 33.614178,546.24948 C 33.614178,552.75845 37.172168,559.46821 50.278795,559.46821 C 63.385497,559.46821 66.943487,552.75845 66.943487,546.24948 C 66.943487,539.73584 63.385497,532.97472 50.278795,532.97472 z M 50.278795,539.38564 C 54.532545,539.38564 54.705308,544.78333 54.705308,546.24948 C 54.705308,547.71096 54.532545,553.10865 50.278795,553.10865 C 46.02512,553.10865 45.852357,547.71096 45.852357,546.24948 C 45.852357,544.78333 46.02512,539.38564 50.278795,539.38564"
       id="path37"
       style="fill:#231f20;fill-opacity:1;fill-rule:evenodd;stroke:none" />
    <path
       d="M 90.313225,533.479 L 90.313225,539.33428 L 94.82838,539.33428 L 94.82838,558.96392 L 107.0666,558.96392 L 107.0666,539.33428 L 112.70708,539.33428 L 112.70708,533.479 L 107.0666,533.479 L 107.0666,528.93579 C 107.0666,527.37159 106.63235,524.79881 110.53587,524.79881 C 111.40436,524.79881 111.92731,524.9529 112.70708,525.20504 L 112.70708,518.3412 C 110.97011,517.98634 109.23781,517.7342 107.41212,517.7342 C 96.476672,517.7342 94.82838,521.52098 94.82838,526.31166 L 94.82838,533.479 L 90.313225,533.479"
       id="path39"
       style="fill:#231f20;fill-opacity:1;fill-rule:nonzero;stroke:none" />
    <path
       d="M 147.21305,526.41438 L 147.21305,533.479 L 142.95934,533.479 L 142.95934,539.33428 L 147.21305,539.33428 L 147.21305,558.96392 L 159.45123,558.96392 L 159.45123,539.33428 L 164.48471,539.33428 L 164.48471,533.479 L 159.45123,533.479 L 159.45123,526.41438 L 147.21305,526.41438"
       id="path41"
       style="fill:#231f20;fill-opacity:1;fill-rule:nonzero;stroke:none" />
    <path
       d="M 189.94162,533.479 L 202.35719,558.96392 L 212.59695,558.96392 L 216.0709,551.09152 L 218.58764,542.96698 L 218.7604,542.96698 L 221.36586,550.3351 L 225.35809,558.96392 L 235.42973,558.96392 L 247.57919,533.479 L 235.94802,533.479 L 230.74177,545.69383 L 229.87328,548.41602 L 229.70052,548.41602 L 224.14408,533.479 L 213.64287,533.479 L 207.91367,548.41602 L 207.73624,548.41602 L 201.83427,533.479 L 189.94162,533.479"
       id="path43"
       style="fill:#231f20;fill-opacity:1;fill-rule:nonzero;stroke:none" />
    <path
       d="M 287.70693,552.95923 C 283.36921,552.95923 283.19641,547.71096 283.19641,546.09539 C 283.19641,544.63391 283.45792,539.28292 287.5342,539.28292 C 291.70387,539.28292 291.96068,544.68527 291.96068,546.09539 C 291.96068,547.45882 291.61511,552.95923 287.70693,552.95923 z M 291.09219,558.96392 L 303.33504,558.96392 L 303.33504,533.479 L 291.09219,533.479 L 291.09219,536.60742 L 290.91939,536.60742 C 289.53265,534.53893 286.75443,532.97472 282.67345,532.97472 C 272.43376,532.97472 270.95823,541.80433 270.95823,546.19812 C 270.95823,550.28374 272.95205,559.46821 282.84625,559.46821 C 286.75443,559.46821 289.27117,558.00672 290.91939,556.08765 L 291.09219,556.08765 L 291.09219,558.96392"
       id="path45"
       style="fill:#231f20;fill-opacity:1;fill-rule:evenodd;stroke:none" />
    <path
       d="M 334.08224,533.479 L 334.08224,558.96392 L 346.32509,558.96392 L 346.32509,546.24948 C 346.32509,542.46269 346.4091,539.33428 354.57103,539.33428 C 355.26208,539.33428 355.87376,539.38564 356.48077,539.43233 L 356.48077,532.5218 C 351.70409,532.77394 348.75311,534.33815 346.49785,536.55606 L 346.32509,536.55606 L 346.32509,533.479 L 334.08224,533.479"
       id="path47"
       style="fill:#231f20;fill-opacity:1;fill-rule:nonzero;stroke:none" />
    <path
       d="M 403.04748,543.7234 L 394.10581,543.7234 L 394.10581,542.96698 C 394.10581,541.35141 394.88558,538.42377 398.621,538.42377 C 402.4358,538.42377 403.04748,541.45413 403.04748,543.11639 L 403.04748,543.7234 z M 413.6374,545.18955 C 414.32846,537.16306 406.86691,532.97472 398.79377,532.97472 C 386.03259,532.97472 382.21316,540.64634 382.21316,546.75376 C 382.21316,553.06196 386.6396,559.46821 399.05054,559.46821 C 407.99224,559.46821 411.90043,555.78415 412.94168,551.09152 L 402.52452,551.09152 C 402.52452,552.60437 401.74475,554.01916 398.621,554.01916 C 393.93301,554.01916 394.10581,549.98023 394.01709,548.11719 L 413.37592,548.11719 L 413.6374,545.18955"
       id="path49"
       style="fill:#231f20;fill-opacity:1;fill-rule:evenodd;stroke:none" />
    <path
       d="M 269.87032,401.01158 C 277.71004,401.01158 284.27038,394.45124 284.27038,386.77495 C 284.27038,379.09398 278.19094,372.21614 270.35126,372.21614 C 262.19403,372.21614 255.63369,378.29554 255.63369,386.45277 C 255.63369,394.45124 262.0306,401.01158 269.87032,401.01158"
       id="path51"
       style="fill:#a32240;fill-opacity:1;fill-rule:nonzero;stroke:none" />
    <path
       d="M 258.82281,488.52786 L 281.08686,488.52786 L 281.08686,409.67776 L 258.82281,409.67776 L 258.82281,488.52786 z"
       id="path53"
       style="fill:#231f20;fill-opacity:1;fill-rule:nonzero;stroke:none" />
    <path
       d="M -21.091087,488.32241 L 2.0461214,488.32241 L 2.0461214,371.24026 L -21.091087,371.24026 L -21.091087,488.32241 z"
       id="path55"
       style="fill:#231f20;fill-opacity:1;fill-rule:nonzero;stroke:none" />
    <path
       d="M 37.410302,409.90655 L 15.511386,409.90655 L 15.511386,488.32241 L 37.410302,488.32241 L 37.410302,439.41172 C 37.410302,435.52688 38.339488,430.40468 43.3076,430.40468 C 50.29751,430.40468 48.74264,441.27476 48.74264,445.30902 L 48.74264,488.32241 L 70.636886,488.32241 L 70.636886,437.70277 C 70.636886,426.36576 72.03767,408.35168 55.886636,408.35168 C 47.346526,408.35168 40.669458,414.56649 37.718474,422.01866 L 37.410302,422.01866 L 37.410302,409.90655"
       id="path57"
       style="fill:#231f20;fill-opacity:1;fill-rule:nonzero;stroke:none" />
    <path
       d="M 76.95442,371.24026 L 110.80669,488.32241 L 129.74995,488.32241 L 162.2061,371.24026 L 137.98189,371.24026 L 123.85265,427.14086 C 121.98494,433.97668 121.52268,440.65375 120.28065,447.4849 L 119.96777,447.4849 C 118.5717,440.80784 117.7966,434.13077 115.7748,427.4537 L 101.79965,371.24026 L 76.95442,371.24026"
       id="path59"
       style="fill:#231f20;fill-opacity:1;fill-rule:nonzero;stroke:none" />
    <path
       d="M 179.37971,401.01158 C 187.21943,401.01158 193.77973,394.45124 193.77973,386.77495 C 193.77973,379.09398 187.70033,372.21614 179.86064,372.21614 C 171.70342,372.21614 165.14308,378.29554 165.14308,386.45277 C 165.14308,394.45124 171.53995,401.01158 179.37971,401.01158"
       id="path61"
       style="fill:#a32240;fill-opacity:1;fill-rule:nonzero;stroke:none" />
    <path
       d="M 168.28083,488.52786 L 190.54489,488.52786 L 190.54489,409.67776 L 168.28083,409.67776 L 168.28083,488.52786 z"
       id="path63"
       style="fill:#231f20;fill-opacity:1;fill-rule:nonzero;stroke:none" />
    <path
       d="M 249.23678,415.02875 C 242.87256,410.37348 236.19078,408.35168 228.27172,408.35168 C 214.45533,408.35168 202.03038,416.42953 202.03038,431.33387 C 202.03038,456.1791 227.3425,453.54096 227.02966,463.94411 C 227.02966,467.98304 224.07871,470.46709 220.66547,470.46709 C 216.31837,470.46709 213.05454,468.13712 209.79539,465.34022 L 200.16734,480.87024 C 206.69028,486.30528 215.38451,489.87728 223.77054,489.87728 C 239.92157,489.87728 248.92861,477.91926 248.92861,462.39391 C 248.92861,438.94479 224.23747,440.80784 223.92462,431.64671 C 223.92462,428.2288 225.94642,425.89883 229.82659,425.89883 C 234.32778,425.89883 237.27876,428.2288 240.38383,431.0257 L 249.23678,415.02875"
       id="path65"
       style="fill:#231f20;fill-opacity:1;fill-rule:nonzero;stroke:none" />
    <path
       d="M 319.84094,408.35168 C 296.39182,408.35168 290.02289,429.16266 290.02289,449.19386 C 290.02289,469.22506 296.39182,489.87728 319.84094,489.87728 C 343.28539,489.87728 349.65428,469.22506 349.65428,449.19386 C 349.65428,429.16266 343.28539,408.35168 319.84094,408.35168 z M 319.84094,428.07471 C 327.44719,428.07471 327.76004,444.68801 327.76004,449.19386 C 327.76004,453.69504 327.44719,470.31301 319.84094,470.31301 C 312.23002,470.31301 311.92184,453.69504 311.92184,449.19386 C 311.92184,444.68801 312.23002,428.07471 319.84094,428.07471"
       id="path67"
       style="fill:#231f20;fill-opacity:1;fill-rule:evenodd;stroke:none" />
    <path
       d="M 380.77035,409.90655 L 358.87611,409.90655 L 358.87611,488.32241 L 380.77035,488.32241 L 380.77035,439.41172 C 380.77035,435.52688 381.70421,430.40468 386.67232,430.40468 C 393.66219,430.40468 392.10736,441.27476 392.10736,445.30902 L 392.10736,488.32241 L 414.00161,488.32241 L 414.00161,437.70277 C 414.00161,426.36576 415.39772,408.35168 399.25136,408.35168 C 390.71125,408.35168 384.03414,414.56649 381.08319,422.01866 L 380.77035,422.01866 L 380.77035,409.90655"
       id="path69"
       style="fill:#231f20;fill-opacity:1;fill-rule:nonzero;stroke:none" />
  </g>
</svg>
