<?xml version="1.0" encoding="UTF-8"?>
<svg version="1.1" viewBox="0 0 580.5 165.5" xmlns="http://www.w3.org/2000/svg" xmlns:cc="http://creativecommons.org/ns#" xmlns:dc="http://purl.org/dc/elements/1.1/" xmlns:rdf="http://www.w3.org/1999/02/22-rdf-syntax-ns#">
 <metadata>
  <rdf:RDF>
   <cc:Work rdf:about="">
    <dc:format>image/svg+xml</dc:format>
    <dc:type rdf:resource="http://purl.org/dc/dcmitype/StillImage"/>
    <dc:title/>
   </cc:Work>
  </rdf:RDF>
 </metadata>
 <title>Hololive English logo</title>
 <desc>English branch of Hololive Production</desc>
 <g transform="translate(744.2,604.5)">
  <g transform="matrix(.9878 0 0 1 -7.719 0)">
   <path d="m-502.1-456.8c-7.615-1.627-13.1-6.226-14.7-12.33-0.745-2.838-0.6967-4.637 0.1991-7.417 1.075-3.335 2.031-4.777 4.777-7.205 2.853-2.523 7.104-4.356 11.57-4.989 5.549-0.7872 12.43 0.7411 16.52 3.672l1.879 1.344-3.895 3.057-2.577-1.432c-3.359-1.867-7.243-2.784-10.25-2.421-2.971 0.3583-6.994 1.961-8.863 3.531-1.365 1.147-4.007 4.887-4.008 5.674-2.2e-4 0.187 5.37 0.3399 11.93 0.3399h11.93l0.2952 4.574h-11.81c-6.93 0-11.93 0.1561-12.09 0.378-0.4034 0.5275 1.42 3.534 3.205 5.283 0.8318 0.8155 2.883 2.015 4.643 2.715 2.882 1.147 3.485 1.242 7.038 1.112 4.004-0.1469 3.851-0.098 9.81-3.14 0.9946-0.5078 1.222-0.455 2.583 0.599 2.009 1.555 1.882 2.365-0.5971 3.816-5.548 3.248-11.32 4.18-17.59 2.84zm30.95 0.8648c-0.0218-0.394-0.4342-6.201-0.3176-12.17 0.2419-12.38 0.427-13.13 4.088-16.51 8.028-7.416 23.11-5.056 26.89 4.207 0.7689 1.883 0.8977 3.647 0.8868 13.27l-0.0127 11.21c-1.858 0.0235-2.796 0.0297-5.031-0.0118l-0.3691-11.48c-0.0292-4.752-0.1236-8.252-1.237-12.58-1.601-2.201-4.95-4.207-8.2-4.567-3.664-0.4059-8.232 1.578-10.17 4.418-0.6858 1.005-0.8409 2.984-1.06 12.53l-0.268 11.65c-1.692 0.0623-3.803 0.0325-5.201 0.034zm57.63-0.9177c-6.146-1.576-10.26-4.365-12.94-8.765-2.319-4.743-2.416-9.928 8e-3 -13.95 1.834-3.029 6.363-6.765 9.601-7.92 7.299-2.604 16.12-1.621 21.98 2.45 0.8449 0.5873 1.536 1.223 1.536 1.413 0 0.404-3.085 2.887-3.587 2.887-0.1878 0-1.354-0.6247-2.592-1.388-5.726-3.532-12.88-3.213-18.4 0.8211-6.349 4.635-6.488 12.14-0.318 17.06 3.33 2.657 6.436 3.561 11.35 3.306 5.407-0.2804 9.444-2.511 12.07-6.67 1.791-2.836 1.905-2.788-6.64-2.788h-7.627c0.0583-1.501-0.0711-3.049-0.032-4.526 1.337-0.02 19.88-0.275 20.64 0.1156 0.998 0.5108 0.4513 5.623-0.9091 8.5-2.212 4.678-8.651 8.836-15.22 9.826-3.593 0.5418-5.71 0.4547-8.914-0.3669zm42.65-0.2094c-3.017-1.18-4.5-2.313-5.742-4.385-0.9283-1.55-0.9885-2.444-0.9885-14.67v-13.02c1.868-0.0106 3.155-0.0164 5.096 0.0178l0.3168 12.75c0.2172 8.739 0.426 12.78 0.8412 13.36 1.389 1.957 2.361 2.121 13.27 2.235l10.24 0.1076c-0.0321 1.525 0.0306 3.049 0.0847 4.574l-10.33 0.0756c-9.92 0.0725-10.51-0.161-12.79-1.052zm34.5 1.01c-0.1513-11.73-0.2184-20.69-0.0446-33.08 2.232 6e-3 3.596-2e-3 5.572 2e-3 -0.1164 11.02-0.1448 22.08-0.1806 33.1-1.832 0.0132-3.68-0.0141-5.347-0.0165zm17.43 0.0201c-0.0347-1.665-0.1474-3.05-0.1624-4.627l15.14-0.1988c13.95-0.1832 14.9-0.2462 15.92-0.9932 3.074-2.435 3.11-5.675-0.4178-7.686-1.042-0.5531-3.055-0.6999-11.86-0.865-10.18-0.1909-10.69-0.2388-12.82-1.198-7.783-3.513-7.648-13.03 0.2307-16.28 2.39-0.9881 2.714-1.014 14.39-1.136l11.95-0.125v4.426h-10.88c-10.2 0-11 0.0535-12.75 0.8479-4.6 4.459-2.482 7.922 0.681 8.281 3.971 0.4507 7.536 0.3185 9.532 0.4498 8.089 0.5322 16.62 0.8235 19.21 6.573 1.379 3.754 0.2422 7.153-3.286 9.819-3.26 2.464-4.811 2.661-21 2.661-11.07 0-13.88 0.0538-13.88 0.0538zm50.47 0.0903c-0.2418-11.72-0.3876-20.69-0.3876-33.19 1.722 0.0802 3.611-0.071 5.333 9e-3 0.164 4.596 0.1617 9.423 0.3258 14.02l20.42 0.1311c-3e-5 -4.706-5e-5 -9.411-8e-5 -14.12h5.424c-0.0856 10.94 0.0971 22.22 0.0114 33.15h-4.921c-0.0896-4.711-0.4476-9.768-0.5372-14.48l-20.4 0.2149c-0.164 4.639-0.0225 9.612-0.1865 14.25-1.753 2e-3 -3.526 0.0106-5.085 0.01z" style="fill:#af64a7;stroke-width:.4424"/>
   <g transform="matrix(.31 0 0 .31 1040 -501)">
    <g transform="translate(-1440,-281)">
     <path d="m-3814 136.5v-125.4h58.89l0.066 49.16c0.047 34.41 0.3575 48.34 1.063 46.7 3.962-8.03 5.502-10.65 9.077-13.11 8.014-6.227 7.438-6.145 36.64-6.145 25.12 0 26.02 0.09832 32.87 1.885 21.25 6.227 36.64 22.12 39.62 41.79 0.4926 3.195 0.9176 34.41 0.9265 68.83l0.03 63.09h-58.89l-0.5601-131.1-3.188-5.49c-5.313-9.013-15.49-14.75-27.01-14.75s-21.25 5.408-27.01 14.75l-3.188 5.49-0.56 131.1h-58.89zm266.1 124.5c-10.63-2.376-17.38-5.899-26.02-13.11-8.977-7.702-13.51-13.93-15.49-22.94-2.125-7.538-2.125-91.77 0-99.14 2.512-9.013 7.528-16.39 16.39-23.76 8.491-7.046 15.49-10.65 26.02-13.11 8.491-1.885 81.13-1.885 89.77 0.03441 16.39 3.605 32.87 15.57 39.62 28.68 4.439 9.013 4.826 13.11 4.826 58.17 0 46.7-0.2989 49.98-6.564 60.63-6.753 11.47-22.24 22.12-37.64 25.4-8.302 1.803-82.03 1.803-89.77 0zm58.89-26.22c5.79-2.54 11.62-7.538 14.5-13.11 2.026-3.687 2.026-4.588 2.026-47.52v-44.25l-2.701-4.67c-2.989-5.08-8.014-9.832-14.5-12.29-5.988-2.704-18.37-2.704-25.12 0.0598-5.79 2.458-11.62 7.292-14.5 12.29l-2.224 3.851-0.29 42.61c-0.2125 30.32 0.028 44.25 0.8114 45.88 2.512 7.62 9.652 13.93 19.27 17.21 5.7 1.885 17.38 1.147 23.14-1.475zm120.2-98.32v-125.4h58.89v251.5h-58.89zm147 124.5c-19.27-4.752-34.76-18.03-40.52-35.23-1.638-4.506-1.738-8.194-1.738-50.8s0.145-46.7 1.738-50.8c5.015-13.93 16.39-25.4 30.88-31.14 12.51-4.998 14.5-5.162 59.88-4.916 38.63 0.2786 40.52 0.3359 46.38 2.13 16.39 5.162 30.88 17.21 35.75 31.14l2.224 5.49v97.5l-2.224 5.49c-5.7 13.93-19.27 26.22-35.75 31.14-5.889 1.884-6.852 1.884-48.26 2.048-37.64 0.1721-42.5 0.0418-48.26-1.229zm57-24.58c7.14-2.294 14.5-8.194 16.39-13.93 1.926-4.424 2.026-5.981 2.026-47.52 0-40.97-0.075-42.61-2.026-46.7-5.402-12.29-23.14-18.85-37.64-14.75-9.653 3.195-16.39 9.013-19.27 18.03-1.251 4.097-1.45 11.47-1.162 45.88 0.3377 45.06 0.2701 45.06 7.051 51.62 8.491 8.194 21.25 11.47 33.76 7.456zm122.1-99.14v-125.4h58.89v251.5h-58.89zm103.3 37.69v-87.67h58.89v175.3h-58.89zm103.3 0.0434v-87.67h58.89v150.8l19.27-0.2704c17.38-0.254 19.27-0.4179 23.14-2.13 5.889-2.458 10.63-6.637 14.5-11.47l2.602-4.261 0.5313-132.7h58.89v48.34c0 38.51-0.2801 49.98-1.45 54.9-6.852 33.59-35.75 60.63-75.27 69.64-7.14 1.721-9.653 1.803-54.02 2.048l-46.38 0.2786zm259.2 86.03c-20.26-4.67-36.64-18.85-42.5-36.05-1.251-4.343-1.45-11.47-1.251-52.44l0.2801-47.52 2.701-5.735c6.564-13.93 19.27-24.58 35.75-30.32 5.889-1.803 7.051-1.885 46.38-2.13 45.38-0.3195 47.27-0.1311 59.88 4.916 14.5 5.735 25.12 17.21 30.88 31.14 1.45 3.933 1.738 8.194 2.125 34.41l0.3764 29.5h-119.2v14.75c0 18.03 1.162 22.12 8.689 27.86 7.815 6.637 11.62 7.374 35.75 7.374 23.14 0 27.01-0.7538 34.76-6.145 4.826-3.523 9.652-11.47 9.652-16.39v-3.114h29.89l-0.6465 4.752c-2.9 21.3-20.26 38.51-43.4 44.25-8.401 1.885-82.03 1.803-89.77-0.0188zm75.27-112.3c0.3764-18.03-2.026-25.4-10.63-31.95-15.49-10.65-39.62-5.49-46.38 9.832-1.738 3.933-2.026 6.391-2.026 19.66v14.75l59.88-0.4342zm-436.9-100.8v-12.29h58.89v24.58h-58.89z" style="fill:#34c9fe;stroke-width:.8894"/>
     <g transform="translate(-.9808 .2397)">
      <path transform="translate(1440,281)" d="m-5723 101c-16.12-5.5-28.24-18-31.35-33-0.5448-2.8-0.9694-16-0.9493-28l0.033-23 1.813 5.3c4.136 12 15.12 23 27.24 27 7.17 2.7 19.23 3.6 25.24 2 4.136-1 323.5-151 347.5-164 13.12-6.5 19.43-15.1 23.43-25.1 1.512-4.2 2.404-3.13 2.103 22.1-0.2323 25-0.3635 27-2.524 31-3.535 7.6-8.783 14-15.12 18-5.658 3.9-342.5 164-352.5 167-6.66 2.4-19.23 2.4-26.24 0.072z" style="fill:#f9f9f9;stroke-width:1.001"/>
      <path d="m-4284 336c-14.17-4.72-25.22-14.8-29.24-27.6-2.02-6.33-2.02-9-2.02-165 0-103 0.3637-160 1.005-164 2.422-12.9 11.16-23.8 23.22-28.7 5.558-2.58 8.382-3.18 15.18-3.59 4.844-0.218 10.05 0.127 12.16 0.805 3.738 1.08 343.7 153 355.8 158 15.18 7.68 24.22 25.7 19.2 41.5-4.542 15.8-11.16 20.8-38.39 34.7-88.84 41.7-330.6 155-333.7 156-8.341 2.29-20-0.436-23.22-2.17z" style="fill:#75e5ee;stroke-width:.9995"/>
      <path d="m-4315 302.4-0.2709-141c-0.1806-92 0.081-143 0.7435-147 3.211-17 17.06-30 34.11-33 4.626-0.73 8.338-0.72 12.04 0.039 4.214 0.77 54.28 23 176.6 79 94.42 43 176.6 75.9 180.6 77.9 6.833 3.2 20.07 14 20.07 17 0 0.88-1.344 7.53-4.565 10.6-6.933 6.7 6.462-0.148-199.7 97.9-88.4 42-162.5 74-165.6 75-5.528 1.5-17.17-0.5443-22.79-2.818-6.572-2.12-9.983-3.91-15.15-7.8-6.864-4.55-11.54-12.43-13.85-18.1-0.9884-2.557-1.267-5.186-2.319-7.721z" style="fill:#5edcee;stroke-width:1.002"/>
      <path d="m-4283 477c-16.2-5.4-28.3-17.7-31.3-32.4-0.565-2.94-0.1466-24.89-0.1066-53.39-0.5399-41.33-0.1958-46.2 0.8687-43.97 4.74 14.7 19.93 26.67 37.03 28.57 14.1 2.06 4.44 5.99 187-78.5 91.9-42.2 172-79.5 176-82.4 11.1-5.59 13.8-12.7 21.9-22.3l3.6-6.19 0.965 51c0.966 51-0.323 52-2.52 55.9-3.53 7.46-8.78 13.7-15.1 17.7-5.65 3.83-342 161-352 164-6.66 2.36-19.2 2.36-26.2 0.0707z" style="fill:#26c5fd;stroke-width:.995"/>
      <path d="m-4314 418.3c0.061-20-0.543-23.3 0.678-19.3 4.07 13 14.5 25.9 27.7 29.9 6.41 1.8 18.3 2.1 24.4 0.48 5.09-1.4 349-163 356-167 8.24-5.1 15.3-14 18.3-23 0.448-1.4 0.712 9 0.59 23-0.204 24-0.346 26-2.54 31-3.87 9.5-12.2 17-25.4 24-6.01 3-86.5 41-179 84l-168 79-9.67 0.31c-7.33 0.24-11.2-0.12-15.3-1.5-13.7-7.74-24.8-18.8-27.6-31.2-0.2976-10.19-0.1647-20.8-0.158-29.69z" style="fill:#4e9eed;stroke-width:1.01"/>
     </g>
    </g>
   </g>
  </g>
 </g>
</svg>
