<?xml version="1.0" encoding="UTF-8"?>
<svg width="579" height="313" version="1.1" viewBox="0 0 579 313" xmlns="http://www.w3.org/2000/svg" xmlns:cc="http://creativecommons.org/ns#" xmlns:dc="http://purl.org/dc/elements/1.1/" xmlns:rdf="http://www.w3.org/1999/02/22-rdf-syntax-ns#">
 <metadata>
  <rdf:RDF>
   <cc:Work rdf:about="">
    <dc:format>image/svg+xml</dc:format>
    <dc:type rdf:resource="http://purl.org/dc/dcmitype/StillImage"/>
    <dc:title/>
   </cc:Work>
  </rdf:RDF>
 </metadata>
 <g transform="translate(-18.1 -13.5)">
  <path d="m396 323c-9.4-2.45-15.3-10.1-14.4-18.7 0.184-1.76 5.79-32 7.53-40.6l0.423-2.09h5.6c3.62 0 5.6 0.147 5.6 0.417 0 0.229-1.72 9.5-3.82 20.6-4.08 21.6-4.41 24.5-3.07 27.5 1.76 3.84 5.54 5.56 11.6 5.31 4.43-0.184 7.07-1.16 9.99-3.68 3.35-2.9 3.76-4.27 8.17-27.4 2.19-11.5 4.08-21.3 4.2-21.8 0.214-0.878 0.343-0.898 5.84-0.898 3.09 0 5.62 0.0919 5.62 0.204 0 0.548-8.12 42.9-8.49 44.3-0.849 3.17-3.3 7.12-6.22 10-5.22 5.21-12.2 7.74-21.1 7.69-3.12-0.0151-5.46-0.261-7.47-0.786zm65.2 0.179c-3.96-0.868-8.99-3.37-11.3-5.65-3.28-3.17-5.31-7.51-5.32-11.4l-5e-3 -1.5h11.1l0.274 2.05c0.315 2.36 1.34 4.55 2.7 5.78 3.81 3.45 12.2 4.15 18 1.51 2.85-1.3 3.91-2.29 5.08-4.75 1.83-3.86 0.873-7.18-2.77-9.55-1.15-0.752-4.8-2.29-8.1-3.42-9.01-3.08-13-5.37-16.1-9.19-2.1-2.62-2.76-4.98-2.56-9.1 0.145-2.97 0.356-3.8 1.52-5.96 1.76-3.27 4.85-6.04 8.98-8.05 4.58-2.22 7.32-2.87 13.1-3.09 6.13-0.228 9.79 0.432 13.9 2.52 5.26 2.63 8.98 7.77 9.58 13.2l0.274 2.49h-5.68c-4.69 0-5.68-0.1-5.68-0.579 0-0.318-0.199-1.5-0.442-2.62-0.802-3.71-3.77-6.07-8.48-6.72-4.67-0.649-9.93 0.675-13 3.28-1.65 1.39-2.96 4.21-2.96 6.39 0 3.68 2.93 5.95 11.2 8.69 9.93 3.29 15.6 7.05 18 11.9 0.999 2.02 1.12 2.7 1.12 6.26 0 3.71-0.095 4.19-1.31 6.65-1.48 2.99-4.73 6.25-7.96 7.98-1.1 0.59-3.62 1.55-5.6 2.13-4.63 1.36-13.2 1.73-17.7 0.753zm94.7-0.153c-9.58-2.57-15.1-9.72-16-20.7-0.281-3.46 0.624-11.2 1.89-16.2 1.03-4.04 4.1-10.4 6.54-13.6 3.73-4.88 8.59-8.34 14.5-10.3 4.31-1.44 11.8-1.8 16.4-0.788 8.11 1.79 13.8 7.03 15.6 14.4 0.325 1.3 0.683 3.13 0.795 4.06l0.204 1.7h-11.6v-1.35c0-2.35-1.48-6.35-2.88-7.77-2.21-2.24-4.11-2.97-8.24-3.17-8.28-0.386-14 3.26-17.8 11.3-2.31 4.91-4.06 13.5-4.13 20.3-0.0713 6.79 1.76 11 5.81 13.2 2.03 1.12 2.4 1.18 6.77 1.18 4.23-4e-3 4.83-0.1 7.12-1.15 3.91-1.78 7.05-5.52 8.69-10.3 0.212-0.62 0.865-0.698 5.88-0.698h5.64l-0.264 1.1c-1.77 7.36-6.54 13.2-13.6 16.5-4.63 2.2-7.29 2.8-13.3 2.98-4.31 0.135-5.74 0.0252-8.15-0.624zm-528-0.63c0-0.476 9.25-48.6 11.3-58.7l0.421-2.09h5.6c4.34 0 5.6 0.117 5.6 0.522 0 0.287-2.62 14-5.83 30.5-3.2 16.5-5.83 30.1-5.83 30.2 0 0.128-2.53 0.233-5.62 0.233-4.79 0-5.62-0.0906-5.62-0.613zm30.2-0.0735c0.0968-0.39 2.79-14.2 5.98-30.7l5.8-30 11.2-6e-3 10.2 21c10.1 20.8 11.2 23.1 11.5 22.7 0.0872-0.0866 1.88-9.03 3.98-19.9 2.1-10.8 4.02-20.7 4.26-21.8l0.431-2.09h5.6c3.75 0 5.6 0.143 5.6 0.432 0 0.238-2.62 13.9-5.83 30.4-3.2 16.5-5.83 30.1-5.83 30.3 0 0.183-2.56 0.284-5.69 0.223l-5.69-0.11-10.6-21.8c-5.85-12-10.7-21.8-10.9-21.8-0.131 3.9e-4 -2.14 9.83-4.46 21.8l-4.22 21.8-5.77 0.111c-5.36 0.103-5.76 0.0604-5.59-0.598zm71.3-0.0112c0.0918-0.384 2.7-13.8 5.79-29.8 3.09-16 5.72-29.5 5.83-30 0.206-0.899 0.267-0.907 5.84-0.798l5.63 0.111 10.5 21.7c5.8 11.9 10.7 21.6 10.9 21.6 0.216-0.066 2.28-9.87 4.59-21.8l4.2-21.7h5.7c5.22 0 5.69 0.0585 5.54 0.698-0.088 0.384-2.69 13.8-5.78 29.8-3.09 16-5.72 29.5-5.84 30-0.206 0.877-0.336 0.898-5.76 0.898h-5.55l-6.56-13.5c-15.4-31.6-14.9-30.7-15.3-29.8-0.288 0.688-8.41 42.2-8.41 43 0 0.159-2.6 0.289-5.79 0.289-5.31 0-5.77-0.058-5.62-0.698zm71.3 0.339c0-0.198 2.62-13.9 5.83-30.3 3.2-16.5 5.83-30.2 5.83-30.4 0-0.215 2.48-0.373 5.83-0.373h5.83l-0.223 0.898c-0.608 2.44-5.28 26.8-5.17 27 0.153 0.181 1.6-1.12 18.4-16.5l12.5-11.4 14.7-0.0332-15.2 13.8c-8.35 7.58-15.1 13.9-15.1 14.1 0.0386 0.153 4.03 7.19 8.88 15.6 4.84 8.45 9.11 15.9 9.48 16.7l0.673 1.29h-12.7l-7.39-13.2c-4.06-7.24-7.52-13.2-7.69-13.2-0.316 0-9.63 7.52-9.63 7.77 0 0.237-3.18 16.7-3.42 17.7-0.211 0.878-0.339 0.898-5.83 0.898-3.09 0-5.62-0.162-5.62-0.359zm91.7-0.737c0.116-0.603 2.8-14.4 5.96-30.7l5.75-29.6h7.34c7.28 0 7.34 7e-3 7.56 0.898 0.118 0.494 2.29 10.7 4.84 22.6 2.54 12 4.76 22.2 4.93 22.7 0.266 0.817 2.33-2.41 14.5-22.6l14.2-23.6h15.2l-0.215 1.1c-0.118 0.603-2.78 14.4-5.92 30.6l-5.71 29.5-11.5 0.221 0.206-0.909c0.113-0.5 1.03-5.22 2.03-10.5 1-5.27 3.17-15.2 4.81-22.1 1.64-6.9 2.93-12.6 2.85-12.7-0.185-0.184 0.275-0.923-14.9 23.9l-13.6 22.2h-4.18c-2.3 0-4.18-0.1-4.18-0.223 0-0.354-10.1-46.2-10.3-46.8-0.106-0.306-0.274-0.474-0.374-0.375-0.1 0.0994-1.17 6.63-2.39 14.5-1.78 11.5-4.4 26.4-5.66 32-0.198 0.879-0.32 0.898-5.87 0.898h-5.67zm214 0.399c0.0939-0.384 2.78-14.2 5.97-30.7l5.8-30 11.5-4e-3 -0.211 0.898c-0.116 0.494-2.75 14-5.85 30-3.1 16-5.73 29.4-5.85 29.8-0.189 0.622-0.829 0.698-5.86 0.698-5.17 0-5.63-0.0583-5.47-0.698zm-479-200v-104l253 0.0384 50.6 68.3c27.9 37.5 50.9 68.3 51.1 68.4 0.374 0.124 0.482-15.2 0.482-68.3v-68.4h51.8v47.1c0 25.9 0.142 47.1 0.316 47.1 0.174 0 5.46-5.79 11.7-12.9 6.29-7.08 26-28.3 43.7-47.1l32.3-34.2h64l-2.65 2.69c-1.46 1.48-21.7 22.3-45.1 46.3l-42.4 43.6 1.35 1.65c3.24 3.94 90.5 113 90.8 113 0.245 0.397-5.97 0.499-30.6 0.499h-30.9l-32.5-41.7c-17.9-22.9-32.6-41.7-32.7-41.7-0.12 0-6.32 5.4-13.8 12l-13.6 12v59.4h-52.2l-50.8-68.4c-27.9-37.6-50.9-68.4-51.1-68.4-0.166-0.0095-0.301 30.8-0.301 68.4v68.4h-253zm201 11.6c0-23-0.144-41.9-0.32-41.9-0.407 0-101 82.9-102 83.4-0.0789 0.212 20.8 0.359 50.9 0.359h51.1zm-92-27.7c30.4-24.9 55.3-45.5 55.4-45.7 0.0877-0.256-19.3-0.357-55.6-0.291l-55.8 0.101-0.102 46c-0.0818 36.9 0 45.9 0.402 45.6 0.277-0.223 25.4-20.8 55.7-45.7z" style="stroke-width:.4"/>
 </g>
</svg>
